<svg viewBox="0 0 111 110" fill="currentColor" xmlns="http://www.w3.org/2000/svg">
<path d="M55.6604 55.3063L55.1309 59.0951C55.0804 59.0701 55.03 59.0576 54.9796 59.0576L46.6957 109.287C49.6461 109.737 52.6722 110 55.6604 110C59.0269 110 62.4313 109.7 65.7221 109.1L56.1522 57.7446L55.6604 55.3063Z" />
<path d="M55.5847 55.1948L52.6721 57.8207C52.6469 57.7957 52.6217 57.7707 52.5964 57.7457L13.8249 91.0571C18.0236 95.8587 23.0166 99.8726 28.6148 102.986L54.4499 57.333L55.5847 55.1948Z" />
<path d="M55.7364 55.2322L57.779 58.4958C57.7538 58.5208 57.7159 58.5458 57.6655 58.5708L83.6519 102.461C89.1745 99.2347 94.0919 95.1083 98.1771 90.2317L56.682 55.9824L55.7364 55.2322Z" />
<path d="M51.6506 55.2726V55.2351L0.358704 56.2104C0.472181 62.6251 1.68262 68.8522 3.99 74.8168L55.6224 55.16L51.6506 55.2726Z" />
<path d="M110.924 52.9451L59.6704 54.9708C59.6704 54.9958 59.6704 55.0208 59.6704 55.0458L55.6987 55.1583L59.4434 56.3962C59.4434 56.4212 59.4434 56.4463 59.4434 56.4713L107.709 73.8022C109.865 67.8001 111 61.5355 111 55.1208C111 54.3956 110.975 53.6703 110.924 52.9451Z" />
<path d="M55.6984 55.119L56.3793 54.8564L106.915 34.4119C104.456 28.5224 101.052 23.1205 96.7395 18.3939L58.6488 52.4556C58.6488 52.4806 58.6614 52.5056 58.6867 52.5306L56.3414 54.5188L55.6984 55.119Z" />
<path d="M51.878 53.7696L55.5849 55.1201H55.6227L12.4255 20.8708C8.416 25.8601 5.31427 31.487 3.27167 37.5265L51.878 53.8446C51.878 53.8196 51.878 53.7946 51.878 53.7696Z" />
<path d="M53.6182 51.7052L55.5852 54.9688L44.54 1.40051C38.1853 2.67595 32.2088 5.00174 26.724 8.37789L53.5804 51.7427C53.5804 51.7177 53.593 51.7052 53.6182 51.7052Z" />
<path d="M81.7607 6.72814C76.049 3.72711 69.9212 1.73893 63.5286 0.838623L56.2661 51.1808L55.6987 54.9696L81.7607 6.72814Z" />
</svg>
