<svg viewBox="0 0 116 116" fill="currentColor" xmlns="http://www.w3.org/2000/svg">
<path d="M29.0002 28.9094C13.0206 28.9094 0.0457764 41.8843 0.0457764 57.8638H58.0002C58.0002 41.8843 45.0253 28.9094 29.0002 28.9094Z"/>
<path d="M87.0001 87.0908C103.025 87.0908 116 74.1159 116 58.0908H58.0001C58.0001 74.1159 70.975 87.0908 87.0001 87.0908Z"/>
<path d="M28.9093 87.0001C28.9093 102.98 41.8842 116 57.9093 116V58.0001C41.8842 58.0001 28.9093 70.975 28.9093 87.0001Z"/>
<path d="M87.0915 29.0001C87.0915 12.975 74.1167 0.00012207 58.1371 0.00012207V58C74.1167 58 87.0915 45.0252 87.0915 29.0001Z"/>
</svg>
