<svg viewBox="0 0 430 290" fill="currentColor" xmlns="http://www.w3.org/2000/svg">
<path d="M-75.2194 134.247C-40.4338 127.133 -6.78675 137.433 17.2021 161.422C20.338 164.653 22.97 167.626 25.2355 170.573C27.8594 174.028 30.3152 177.694 32.6028 181.57C38.0243 190.759 42.0473 200.85 45.3825 211.562C51.5725 232.171 54.7824 254.574 55.5403 277.583C56.3232 298.254 55.0448 318.11 49.7788 339.243C45.2248 358.309 37.2339 377.8 24.481 393.387C23.8081 394.231 23.097 395.109 22.3478 396.022C23.311 394.976 21.0407 397.378 20.6967 397.687C19.0302 399.426 17.2951 401.049 15.4914 402.555C14.7271 403.244 13.9016 403.928 13.0151 404.608C12.7858 404.815 9.94292 406.842 11.3413 405.938C9.40035 407.212 7.42898 408.335 5.42718 409.307C4.52559 409.763 3.60116 410.18 2.65382 410.559C1.82867 410.946 2.65378 410.559 2.83706 410.572C2.36339 410.761 1.86684 410.912 1.3474 411.023C0.430748 411.256 -0.485894 411.488 -1.40255 411.72C-1.92197 411.831 -2.40319 411.909 -2.84619 411.952C-3.32739 412.029 -4.58773 412.274 -3.44205 412.132C-5.32083 412.222 -7.15355 412.092 -8.87166 411.858C-10.2232 411.651 -9.60485 411.806 -9.23829 411.832C-9.77278 411.72 -10.3073 411.608 -10.8417 411.495C-11.88 411.125 -12.903 410.681 -13.9106 410.163C-14.3687 409.982 -14.8115 409.728 -15.2388 409.4C-14.9183 409.646 -14.4604 410.124 -15.5593 409.155C-16.3683 408.577 -17.1391 407.966 -17.8717 407.319C-18.5585 406.75 -19.23 406.108 -19.8861 405.393C-20.0233 405.161 -20.8242 404.101 -20.0919 405.045C-20.4886 404.571 -20.8625 404.135 -21.2134 403.739C-23.9133 399.759 -25.3535 396.425 -26.6098 392.213C-29.3281 383.439 -29.9619 374.925 -29.1277 364.733C-29.1503 364.397 -28.85 361.632 -29.0575 363.066C-28.9342 361.886 -28.8109 360.706 -28.6876 359.526C-28.3189 357.175 -27.8891 354.829 -27.3982 352.486C-26.5923 348.197 -25.3739 343.715 -24.0869 339.349C-24.0409 339.13 -23.5354 337.605 -24.0408 339.13C-23.903 338.768 -23.7499 338.333 -23.5814 337.825C-23.2444 336.809 -22.8846 335.831 -22.5019 334.893C-21.7209 332.645 -20.8405 330.368 -19.8609 328.06C-18.1158 323.875 -16.1645 319.742 -14.0071 315.661C-13.8465 315.338 -12.2171 312.445 -12.9744 313.839C-12.4695 312.91 -11.9418 312.018 -11.3911 311.166C-10.1214 308.953 -8.80578 306.818 -7.44449 304.76C-4.90547 300.929 -2.23675 297.218 0.56171 293.628C1.98381 291.871 3.44412 290.081 4.94267 288.256C5.2484 287.98 5.53121 287.666 5.7912 287.313C6.0205 287.106 7.25908 285.634 6.52516 286.473C5.79123 287.313 6.86907 286.164 6.80044 286.047C7.41192 285.496 7.96231 284.941 8.4516 284.381C11.6624 280.895 14.9875 277.602 18.427 274.503C21.7901 271.473 25.2448 268.598 28.7908 265.878C29.6009 265.267 30.411 264.656 31.2211 264.045C31.565 263.735 33.766 262.108 32.4362 263.128C34.4079 261.708 36.387 260.4 38.3738 259.204C42.0264 256.863 45.7552 254.75 49.5602 252.866C51.4398 251.885 53.3042 250.977 55.1531 250.143C56.1005 249.764 57.0095 249.42 57.8804 249.111C58.4305 248.852 58.9424 248.629 59.4161 248.439C60.8371 247.872 59.2329 248.426 60.1266 248.156C77.3847 241.692 93.5155 240.162 110.102 241.785C143.641 245.057 173.111 262.861 196.274 288.128C221.268 315.309 238.967 352.447 245.023 394.553C248.051 415.161 247.594 438.195 244.046 460.453C240.359 483.37 233.877 506.311 226.135 528.605C209.343 576.333 187.467 622.585 161.125 665.735C154.7 676.274 148.001 686.645 141.026 696.847C145.638 697.918 150.25 698.988 154.862 700.058C157.9 667.512 160.939 634.966 163.978 602.42C158.631 603.675 153.261 604.891 147.868 606.069C150.014 639.762 146.752 674.41 138.128 708.899C136.381 715.462 142.332 721.678 147.972 717.844C171.7 701.81 193.369 682.287 213.047 659.391C216.373 655.504 215.692 648.993 212.784 646.446C209.419 643.421 204.744 645.318 201.418 649.205C184.17 669.377 164.496 686.924 143.749 701.164C147.03 704.145 150.311 707.127 153.592 710.108C162.721 674.095 166.146 637.341 163.978 602.42C163.708 597.498 160.435 594.034 155.943 595.052C151.154 596.161 148.377 600.979 147.868 606.069C144.829 638.614 141.791 671.16 138.752 703.706C138.451 707.362 141.266 710.348 143.923 710.982C146.878 711.526 150.316 710.21 152.587 706.917C183.031 662.387 208.896 613.966 229.104 563.695C248.371 515.697 264.296 464.119 263.035 414.664C261.796 366.437 245.776 322.62 221.017 288.993C198.02 258.054 167.134 234.578 130.622 225.969C112.892 221.813 94.0139 221.365 74.9021 225.58C56.9821 229.434 39.6078 237.785 23.3298 249.778C-7.323 272.23 -33.5668 308.701 -42.3324 348.306C-47.2327 370.357 -46.7728 393.456 -37.9225 411.134C-33.3713 420.037 -26.138 427.236 -16.9758 429.67C-8.06546 431.973 1.74196 430.441 11.1861 425.317C29.845 415.275 43.9536 395.438 53.5037 374.72C63.6504 352.931 68.6435 329.55 70.7495 306.632C72.8329 283.379 71.4105 260.434 68.2918 238.483C64.7639 213.16 58.0274 188.947 46.155 168.826C26.0474 134.749 -8.75899 114.449 -46.8363 113.307C-56.2755 113.082 -65.7615 113.969 -75.363 115.851C-79.6712 116.882 -83.3417 121.97 -83.2545 126.88C-83.2134 132.009 -79.4817 135.059 -75.2194 134.247Z"/>
</svg>
