<svg viewBox="0 0 134 110" fill="currentColor" xmlns="http://www.w3.org/2000/svg">
<path d="M164.245 27.1116C161.792 36.3986 155.399 44.3637 146.946 49.0565C145.819 49.6643 144.812 50.159 143.854 50.5619C142.735 51.0259 141.586 51.4347 140.408 51.788C137.617 52.6255 134.779 53.053 131.877 53.2685C126.322 53.6253 120.7 53.1163 115.226 51.9464C110.296 50.9215 105.801 49.4195 101.479 46.8255C97.5568 44.5355 93.9417 41.3443 91.8038 37.1708C91.6861 36.9493 91.5648 36.7161 91.4399 36.471C91.5707 36.7785 91.2773 36.0576 91.2455 35.9516C91.0359 35.4238 90.8616 34.8855 90.7226 34.3366C90.6519 34.101 90.5895 33.8501 90.5353 33.5839C90.5141 33.5132 90.3763 32.6686 90.4222 33.0785C90.3539 32.5084 90.3245 31.9394 90.3339 31.3717C90.3339 31.1149 90.3457 30.8545 90.3693 30.5907C90.3763 30.3574 90.3693 30.5907 90.3445 30.6366C90.3563 30.5047 90.3799 30.3692 90.4152 30.2302C90.4694 29.9828 90.5236 29.7355 90.5778 29.4881C90.6131 29.3491 90.652 29.2219 90.6944 29.1065C90.7333 28.9792 90.8252 28.6435 90.7227 28.9439C90.9242 28.4598 91.1715 28.0004 91.4295 27.5763C91.638 27.2441 91.5285 27.3926 91.479 27.4844C91.5685 27.3549 91.6581 27.2253 91.7476 27.0957C91.9573 26.8531 92.1822 26.6186 92.4225 26.3925C92.5191 26.2865 92.6311 26.1887 92.7583 26.0992C92.6629 26.1663 92.4968 26.2547 92.8537 26.0321C93.0846 25.8601 93.319 25.6999 93.557 25.5515C93.7714 25.4101 94.001 25.277 94.2461 25.1521C94.3167 25.1309 94.6595 24.9896 94.3521 25.1203C94.5099 25.0473 94.656 24.9778 94.7903 24.9119C96.0413 24.4595 96.9919 24.29 98.1262 24.2193C100.501 24.0462 102.568 24.389 104.855 25.2054C104.936 25.2196 105.547 25.4599 105.236 25.322C105.498 25.4234 105.759 25.5247 106.021 25.626C106.527 25.8592 107.026 26.1078 107.516 26.3716C108.424 26.8311 109.329 27.4071 110.198 27.9938C110.244 28.0185 110.541 28.2376 110.244 28.0185C110.312 28.0751 110.396 28.1398 110.495 28.2129C110.693 28.359 110.879 28.5086 111.053 28.6617C111.487 28.9939 111.915 29.3532 112.339 29.7395C113.112 30.4322 113.848 31.1743 114.548 31.9659C114.604 32.026 115.089 32.6126 114.852 32.337C115.01 32.5208 115.156 32.7081 115.29 32.8989C115.658 33.3536 116.001 33.8154 116.322 34.2842C116.918 35.1583 117.47 36.0582 117.979 36.9841C118.222 37.4506 118.468 37.9288 118.718 38.4189C118.746 38.5131 118.786 38.6038 118.838 38.691C118.859 38.7617 119.057 39.1645 118.947 38.9278C118.838 38.691 118.979 39.0338 119.015 39.0232C119.071 39.2116 119.136 39.3848 119.209 39.5426C119.645 40.5675 120.022 41.61 120.34 42.6701C120.651 43.7068 120.914 44.7575 121.131 45.8224C121.178 46.065 121.225 46.3077 121.273 46.5504C121.304 46.6564 121.424 47.3137 121.343 46.9144C121.442 47.501 121.514 48.0829 121.559 48.6601C121.674 49.7297 121.727 50.8051 121.718 51.8865C121.725 52.4236 121.716 52.9526 121.693 53.4732C121.669 53.7371 121.642 53.9891 121.612 54.2294C121.607 54.3849 121.599 54.5287 121.587 54.6606C121.552 55.0564 121.612 54.6146 121.569 54.8585C121.039 59.6398 119.488 63.8415 117.144 67.9725C112.409 76.3265 104.754 82.7827 96.0998 87.1892C86.7809 91.9491 75.9955 94.2599 65.4257 93.3091C60.2451 92.8602 54.909 91.3793 50.1207 89.1564C45.1945 86.8593 40.5935 83.8483 36.2929 80.5546C27.1121 73.4478 18.8784 65.1325 11.8992 55.863C10.1936 53.6012 8.55984 51.2794 6.99792 48.8976C6.2016 50.0096 5.40525 51.1215 4.60894 52.2335C11.8651 54.9359 19.1212 57.6383 26.3774 60.3407C26.7167 58.9036 27.0677 57.463 27.4306 56.0188C19.2921 54.5697 11.5707 51.6859 4.52071 47.4451C3.19199 46.6111 1.03278 47.7595 1.26243 49.424C2.20582 56.4211 4.20935 63.1001 7.23772 69.4717C7.75364 70.5496 9.35801 70.7617 10.298 70.1715C11.4042 69.493 11.5137 68.1891 10.9978 67.1112C8.31927 61.5206 6.54188 55.467 5.66563 49.3357C4.57954 49.9954 3.49346 50.655 2.40736 51.3146C9.75416 55.7746 17.9491 58.8245 26.3774 60.3407C27.5612 60.5634 28.7592 59.9344 29.0525 58.7293C29.36 57.443 28.5614 56.45 27.4306 56.0188C20.1744 53.3164 12.9183 50.614 5.66212 47.9116C4.84228 47.6183 3.81039 48.1589 3.34745 48.7986C2.87035 49.5195 2.77139 50.4736 3.27318 51.2475C10.0898 61.6443 18.3587 71.1047 27.7304 79.2328C36.6814 86.9863 46.8659 94.1002 58.5876 96.7085C70.0196 99.2496 82.1691 97.7621 92.9687 93.444C102.931 89.4157 112.08 82.9348 118.416 74.1392C121.488 69.8668 123.827 65.082 125.103 59.9615C126.322 55.166 126.425 50.2434 125.545 45.3843C123.92 36.2421 118.492 27.3932 110.262 22.8131C105.682 20.258 100.222 19.0069 95.0378 20.2153C92.4156 20.8478 89.8748 22.2649 88.2209 24.4558C86.627 26.5902 85.8248 29.1805 85.906 31.891C86.0472 37.2413 89.0191 42.0121 92.7366 45.6733C96.6344 49.55 101.515 52.2076 106.628 54.1019C111.823 56.0103 117.36 57.007 122.866 57.5124C129.209 58.1133 135.673 57.8308 141.786 55.9969C152.141 52.8909 161.011 45.2226 165.785 35.5859C166.955 33.1935 167.87 30.7233 168.567 28.1648C168.835 27.0057 168.079 25.7688 166.92 25.5002C165.715 25.2069 164.559 25.9773 164.245 27.1116Z" />
</svg>
