<svg viewBox="0 0 334 257" fill="currentColor" xmlns="http://www.w3.org/2000/svg">
<path d="M53.7466 -12.421C57.449 12.1703 71.563 34.5144 91.8301 49.0476C94.5379 50.9394 96.9703 52.5054 99.3019 53.8207C102.028 55.3407 104.845 56.7269 107.752 57.9794C114.641 60.9478 121.76 62.8757 129.1 64.2771C143.168 66.8169 157.646 67.1506 171.927 65.7421C184.78 64.5471 196.656 61.9987 208.391 56.5925C219.023 51.851 229.119 44.703 235.718 34.5981C236.08 34.0632 236.453 33.499 236.839 32.9056C236.421 33.6578 237.367 31.8902 237.477 31.6269C238.157 30.3315 238.749 28.9985 239.255 27.6279C239.5 27.0429 239.728 26.4161 239.939 25.7475C240.013 25.572 240.596 23.4409 240.366 24.4814C240.697 23.0356 240.929 21.5816 241.061 20.1192C241.131 19.459 241.173 18.7863 241.185 18.1011C241.231 17.4995 241.185 18.1011 241.236 18.2264C241.242 17.8838 241.219 17.5287 241.167 17.161C241.097 16.5093 241.027 15.8575 240.956 15.2057C240.905 14.8381 240.84 14.4997 240.764 14.1905C240.7 13.8521 240.558 12.9622 240.736 13.7644C240.356 12.4609 239.851 11.2077 239.31 10.0422C238.869 9.12729 239.108 9.54081 239.209 9.79146C239.016 9.4322 238.824 9.07296 238.631 8.7137C238.163 8.02865 237.654 7.36029 237.103 6.70869C236.886 6.40794 236.627 6.12388 236.327 5.85657C236.552 6.05705 236.951 6.33272 236.102 5.65615C235.561 5.14659 235.007 4.66625 234.441 4.2152C233.933 3.7892 233.384 3.37993 232.793 2.98738C232.619 2.91223 231.784 2.44876 232.532 2.87468C232.149 2.64084 231.796 2.41948 231.472 2.21069C228.406 0.682499 226.028 -0.0311149 223.155 -0.544075C217.146 -1.68273 211.78 -1.40524 205.725 0.0256783C205.514 0.0382825 203.889 0.477516 204.72 0.214018C204.025 0.398087 203.33 0.582176 202.635 0.766245C201.28 1.21793 199.941 1.71135 198.619 2.24658C196.176 3.1624 193.711 4.37906 191.333 5.63328C191.209 5.68346 190.392 6.16005 191.209 5.68348C191.019 5.80888 190.788 5.95103 190.516 6.10989C189.971 6.4276 189.455 6.75783 188.968 7.1006C187.772 7.82799 186.579 8.62639 185.392 9.49583C183.231 11.0508 181.15 12.7436 179.148 14.5743C178.987 14.7123 177.591 16.079 178.271 15.4395C177.818 15.8658 177.394 16.3046 176.999 16.756C175.937 17.8176 174.933 18.9043 173.987 20.016C172.226 22.0889 170.57 24.2412 169.018 26.4728C168.271 27.6011 167.512 28.7587 166.74 29.9456C166.642 30.1796 166.515 30.401 166.359 30.61C166.286 30.7855 165.67 31.7634 166.015 31.1867C166.359 30.61 165.905 31.4499 165.817 31.4124C165.621 31.8804 165.409 32.3066 165.179 32.6911C163.786 35.1984 162.538 37.7684 161.436 40.401C160.358 42.9751 159.396 45.5993 158.551 48.2736C158.364 48.8836 158.177 49.4937 157.99 50.1038C157.88 50.367 157.393 52.0217 157.71 51.0189C157.297 52.4981 156.954 53.973 156.681 55.4438C156.093 58.1598 155.662 60.9091 155.389 63.6918C155.223 65.0707 155.099 66.4328 155.016 67.7782C155.003 68.4634 155.003 69.1194 155.015 69.7461C154.985 70.1472 154.966 70.5191 154.96 70.8617C154.941 71.8895 154.909 70.7364 154.951 71.3756C154.989 83.8222 157.79 95.0772 162.63 106.382C172.411 129.241 190.157 148.074 211.016 161.931C233.473 176.889 260.342 185.98 287.558 186.623C300.893 186.982 314.908 184.734 327.73 180.418C340.924 175.951 353.484 169.555 365.357 162.343C390.723 146.755 414.006 127.783 434.351 105.991C439.322 100.675 444.127 95.1833 448.765 89.5163C450.49 92.6075 452.215 95.6988 453.94 98.79C434.693 103.618 415.446 108.446 396.199 113.274C395.728 109.48 395.229 105.674 394.701 101.855C415.853 100.507 436.337 95.3488 455.481 86.5058C459.099 84.7498 464.289 88.3329 463.246 92.5448C458.917 110.257 451.972 126.843 442.498 142.338C440.887 144.958 436.737 145.035 434.502 143.243C431.868 141.176 431.946 137.792 433.558 135.172C441.926 121.582 448.122 106.538 452.042 91.0318C454.63 93.0448 457.219 95.0579 459.807 97.0709C439.846 106.391 418.109 111.838 396.199 113.274C393.119 113.5 390.236 111.533 389.82 108.35C389.389 104.953 391.698 102.634 394.701 101.855C413.948 97.0275 433.195 92.1996 452.442 87.3717C454.613 86.8571 457.096 88.5484 458.101 90.3279C459.12 92.3206 459.11 94.8024 457.617 96.6454C437.377 121.382 413.689 143.288 387.556 161.446C362.598 178.764 334.671 194.078 304.062 197.36C274.21 200.553 243.636 193.181 217.282 178.925C192.984 165.659 171.433 146.326 157.691 121.863C151.034 109.983 146.383 96.9987 144.536 83.4622C142.745 70.778 143.836 58.0928 147.415 45.8581C154.073 22.8302 170.347 1.66682 192.594 -7.7037C204.976 -12.9346 219.243 -14.5563 232.131 -9.93537C238.644 -7.54345 244.735 -3.15841 248.35 2.95718C251.828 8.90987 253.162 15.8034 252.21 22.7477C250.379 36.4609 241.489 47.8577 231.003 56.1839C219.997 65.0118 206.822 70.4184 193.261 73.7946C179.489 77.1834 165.093 78.1283 150.914 77.8196C134.572 77.5116 118.167 74.8974 103.081 68.397C77.529 57.3877 57.0161 35.0832 47.4889 8.91456C45.1633 2.42251 43.5079 -4.19507 42.4356 -10.9758C42.0692 -14.0341 44.3376 -16.993 47.3673 -17.3449C50.521 -17.7471 53.2562 -15.4291 53.7466 -12.421Z" fill="currentColor"/>
</svg>
