<svg viewBox="0 0 101 101" fill="currentColor" xmlns="http://www.w3.org/2000/svg">
<path d="M34.9612 46.6154H21.3649C19.7462 46.6154 18.3701 46.0491 17.237 44.916C16.1045 43.7828 15.5375 42.4071 15.5375 40.788V38.8466C15.5375 34.5571 17.0552 30.8953 20.0904 27.8601C23.1254 24.826 26.7878 23.3082 31.0769 23.3082H34.9612C36.0131 23.3082 36.9233 22.9237 37.6924 22.1551C38.4612 21.3862 38.8456 20.4761 38.8456 19.4239V11.654C38.8456 10.6021 38.461 9.69111 37.6924 8.92216C36.9235 8.15427 36.0134 7.76904 34.9612 7.76904H31.0769C26.8682 7.76904 22.8529 8.58923 19.0285 10.2273C15.2046 11.8664 11.897 14.082 9.10459 16.8745C6.31237 19.6656 4.09734 22.9734 2.45845 26.7978C0.819553 30.6217 0 34.6381 0 38.8464V81.576C0 84.8149 1.13249 87.565 3.39854 89.8319C5.6648 92.0976 8.41706 93.2303 11.654 93.2303H34.9627C38.1995 93.2303 40.9509 92.0976 43.2174 89.8319C45.483 87.565 46.6161 84.8149 46.6161 81.576V58.2695C46.6161 55.0312 45.483 52.2811 43.2159 50.014C40.9505 47.7486 38.198 46.6154 34.9612 46.6154ZM97.603 50.014C95.3375 47.7486 92.5859 46.6154 89.3483 46.6154H75.7522C74.1344 46.6154 72.757 46.0491 71.6258 44.916C70.4922 43.7828 69.9263 42.4071 69.9263 40.788V38.8466C69.9263 34.5571 71.444 30.8953 74.4777 27.8601C77.5117 24.826 81.1738 23.3082 85.4651 23.3082H89.3485C90.4007 23.3082 91.3114 22.9237 92.0799 22.1551C92.8481 21.3862 93.2339 20.4761 93.2339 19.4239V11.654C93.2339 10.6021 92.8483 9.69111 92.0799 8.92216C91.3116 8.15427 90.4009 7.76904 89.3485 7.76904H85.4651C81.254 7.76904 77.2396 8.58923 73.4141 10.2273C69.5908 11.8664 66.2843 14.082 63.4919 16.8745C60.6995 19.6656 58.4834 22.9734 56.8451 26.7978C55.2066 30.6217 54.386 34.6381 54.386 38.8464V81.576C54.386 84.8149 55.5196 87.565 57.785 89.8319C60.0506 92.0976 62.8022 93.2303 66.0396 93.2303H89.347C92.5847 93.2303 95.3361 92.0976 97.6015 89.8319C99.8686 87.565 101 84.8149 101 81.576V58.2695C101 55.031 99.8686 52.2811 97.603 50.014Z"/>
</svg>
